<svg width="110" height="34" viewBox="0 0 110 34" fill="none" xmlns="http://www.w3.org/2000/svg">
<g clip-path="url(#clip0_1119_8796)">
<path d="M80.4641 4.87652C79.2493 4.87652 78.0663 4.86235 76.8842 4.88255C76.3066 4.89251 75.7269 4.94226 75.1535 5.01645C70.7714 5.58277 65.8003 10.1001 67.0812 16.576C68.1352 21.9042 73.9608 25.9794 80.193 23.8022C84.2695 22.378 86.735 18.7068 86.7398 14.2697C86.7449 9.65167 86.741 5.03333 86.741 0.415298V0.00216519C86.5944 0.00216519 86.4965 -0.00326282 86.3991 0.00306986C84.3384 0.13485 82.6204 1.95384 82.6158 4.02252C82.6083 7.45845 82.6152 10.8941 82.6004 14.33C82.5983 14.8439 82.5666 15.3695 82.4541 15.8686C81.5915 19.6992 77.6244 21.593 74.1848 19.8654C71.9623 18.7493 70.7911 16.3405 71.1151 13.7399C71.4497 11.0545 73.7879 8.88391 76.4931 8.78741C77.6764 8.74519 78.8625 8.77444 80.0473 8.77143C80.1791 8.77112 80.3109 8.77143 80.4635 8.77143V4.87652H80.4641Z" fill="white"/>
<path d="M8.99926 24.3799H9.38403C10.4948 24.3799 11.6059 24.3853 12.7167 24.379C14.9168 24.3663 16.9062 23.7315 18.6711 22.399C22.8159 19.27 23.4303 14.1758 21.6068 10.4721C19.7888 6.77923 15.8133 4.32366 11.0745 4.98437C7.04489 5.54617 2.61597 9.48118 2.73083 14.7913C2.83148 19.444 2.75168 24.1006 2.75168 28.7555C2.75168 28.9123 2.75168 29.0694 2.75168 29.2545C2.89737 29.2545 3.00557 29.26 3.11287 29.2536C4.78524 29.1559 6.45549 27.7193 6.73991 26.0632C6.85961 25.3666 6.87653 24.6465 6.87986 23.9369C6.89406 20.8212 6.88318 17.7058 6.89013 14.5901C6.89104 14.2232 6.91129 13.8492 6.98232 13.4904C7.6769 9.97694 11.4593 7.53704 15.2136 9.38016C17.5548 10.5297 18.798 13.2793 18.2854 15.8443C17.7676 18.4344 15.4363 20.5766 12.5601 20.4892C11.5983 20.4599 10.6348 20.4847 9.67207 20.4847H8.99956V24.3796L8.99926 24.3799Z" fill="white"/>
<path d="M37.6814 20.485C36.3998 20.485 35.1651 20.5145 33.9325 20.4723C33.3368 20.4518 32.7217 20.3701 32.1565 20.1888C29.5994 19.3692 28.0114 16.7885 28.297 13.9958C28.6491 10.5502 31.8294 8.20165 35.2258 8.87955C37.7905 9.39129 39.776 11.8466 39.7953 14.5551C39.8089 16.4519 39.7871 18.3487 39.8014 20.2452C39.8137 21.8787 40.5818 23.0829 41.9882 23.8844C42.5803 24.2218 43.2283 24.385 43.9316 24.3702C43.9377 24.2601 43.9453 24.1878 43.9453 24.1154C43.9459 20.8637 43.9613 17.612 43.9335 14.3606C43.9274 13.6665 43.8234 12.9602 43.666 12.282C42.7048 8.14044 38.1816 3.94217 32.1256 5.04617C27.8503 5.82569 23.3267 10.0369 24.2565 16.2029C24.9492 20.7974 29.1134 24.363 33.7723 24.3784C34.9574 24.3823 36.1426 24.3802 37.3277 24.379C37.4453 24.379 37.5626 24.3663 37.681 24.3594V20.4847L37.6814 20.485Z" fill="white"/>
<path d="M101.832 20.4846H101.408C100.309 20.4846 99.2102 20.5069 98.1124 20.475C97.588 20.4596 97.0485 20.4038 96.547 20.2593C93.5792 19.4041 91.8346 16.2812 92.5621 13.2509C93.1331 10.8725 95.5469 8.24714 99.1788 8.84904C101.823 9.28721 103.929 11.7455 103.947 14.4619C103.96 16.3587 103.95 18.2555 103.949 20.1523C103.949 21.5039 104.475 22.6133 105.517 23.4673C106.252 24.0692 107.105 24.3687 108.097 24.3747C108.097 24.2438 108.097 24.1479 108.097 24.052C108.097 20.8003 108.113 17.5486 108.085 14.2973C108.079 13.6037 107.968 12.8989 107.812 12.221C106.881 8.18502 102.33 3.90955 96.2257 5.05366C92.5649 5.7397 88.7202 9.23383 88.359 13.5461C88.1296 16.2848 88.7338 18.7528 90.5654 20.8531C92.301 22.8431 94.4464 24.1081 97.121 24.3098C98.3243 24.4006 99.5372 24.3617 100.746 24.3792C101.1 24.3843 101.456 24.3801 101.832 24.3801V20.4852V20.4846Z" fill="white"/>
<path d="M65.2792 24.3589C65.2864 24.253 65.297 24.1692 65.297 24.0857C65.2979 20.8102 65.3049 17.5347 65.2949 14.2591C65.291 13.0146 65.0247 11.8144 64.4888 10.6911C61.3559 4.12354 53.2918 3.19203 48.7399 7.47564C46.7559 9.34257 45.5765 11.5768 45.5556 14.3324C45.5312 17.5461 45.5502 20.7601 45.5514 23.9741C45.5514 24.1041 45.5632 24.2337 45.5704 24.3764C45.6859 24.3764 45.7591 24.3803 45.8319 24.3758C47.9398 24.2416 49.6361 22.4527 49.6415 20.3518C49.6457 18.7756 49.6364 17.1993 49.6454 15.6234C49.6491 15.0091 49.6494 14.3909 49.7159 13.7815C49.9906 11.2569 52.6133 8.03382 56.6904 8.89868C59.2501 9.44148 61.1867 11.8874 61.2045 14.5489C61.2169 16.4207 61.2036 18.2925 61.2102 20.1639C61.2115 20.47 61.2344 20.7791 61.2837 21.081C61.5814 22.9135 63.4521 24.4608 65.2798 24.3586L65.2792 24.3589Z" fill="white"/>
<path d="M80.4641 4.87622V8.77143C80.3115 8.77143 80.1797 8.77143 80.0479 8.77143C78.8631 8.77444 77.677 8.74549 76.4937 8.78741C73.7885 8.88361 71.4503 11.0545 71.1157 13.7399C70.7917 16.3408 71.9632 18.7493 74.1854 19.8654C77.6247 21.593 81.5918 19.6989 82.4548 15.8686C82.5672 15.3695 82.5986 14.8436 82.601 14.33C82.6159 10.8944 82.6092 7.45845 82.6165 4.02252C82.621 1.95384 84.339 0.13485 86.3998 0.00306986C86.4971 -0.00326282 86.595 0.00216519 86.7416 0.00216519V0.414996C86.7416 5.03303 86.7452 9.65137 86.7404 14.2694C86.7356 18.7065 84.2701 22.3777 80.1936 23.8019C73.9614 25.9791 68.1358 21.9039 67.0818 16.5757C65.8009 10.0995 70.7721 5.58247 75.1541 5.01615C75.7275 4.94196 76.3072 4.89221 76.8848 4.88225C78.0672 4.86175 79.25 4.87622 80.4647 4.87622H80.4641Z" fill="black"/>
<path d="M8.99932 24.3797V20.4848H9.67183C10.6345 20.4848 11.5981 20.46 12.5599 20.4893C15.4358 20.5767 17.7671 18.4345 18.2851 15.8444C18.7981 13.2794 17.5549 10.5298 15.2133 9.38025C11.4591 7.53713 7.67666 9.97703 6.98208 13.4905C6.91105 13.8493 6.8908 14.2232 6.88989 14.5902C6.88294 17.7059 6.89382 20.8216 6.87961 23.937C6.87629 24.6465 6.85936 25.3667 6.73967 26.0633C6.45525 27.7197 4.785 29.156 3.11263 29.2537C3.00533 29.2601 2.89712 29.2546 2.75144 29.2546C2.75144 29.0695 2.75144 28.9127 2.75144 28.7556C2.75144 24.1007 2.83123 19.4441 2.73058 14.7914C2.61572 9.48127 7.04464 5.54656 11.0746 4.98446C15.8136 4.32344 19.7889 6.77902 21.6069 10.4722C23.4301 14.1759 22.8159 19.2701 18.6711 22.399C16.906 23.7313 14.9168 24.3664 12.7167 24.3791C11.606 24.3854 10.4949 24.3803 9.38409 24.38H8.99932V24.3797Z" fill="black"/>
<path d="M37.6813 20.4847V24.3594C37.5628 24.3663 37.4452 24.3787 37.328 24.379C36.1428 24.3802 34.9577 24.3823 33.7726 24.3784C29.1136 24.363 24.9495 20.7974 24.2567 16.2029C23.327 10.0369 27.8502 5.82539 32.1259 5.04617C38.1818 3.94217 42.7051 8.14044 43.6662 12.282C43.8237 12.9599 43.9277 13.6665 43.9337 14.3606C43.9612 17.612 43.9461 20.8637 43.9455 24.1154C43.9455 24.1878 43.9379 24.2601 43.9319 24.3702C43.2286 24.3847 42.5805 24.2218 41.9884 23.8844C40.5823 23.0832 39.814 21.8787 39.8016 20.2452C39.7874 18.3487 39.8092 16.4516 39.7956 14.5551C39.7762 11.8466 37.7907 9.39129 35.2261 8.87955C31.8297 8.20196 28.6494 10.5502 28.2972 13.9958C28.0119 16.7885 29.5996 19.3692 32.1567 20.1888C32.7219 20.3701 33.337 20.4518 33.9328 20.4723C35.1653 20.5148 36.4 20.485 37.6816 20.485L37.6813 20.4847Z" fill="black"/>
<path d="M101.832 20.4832V24.3781C101.456 24.3781 101.1 24.3823 100.746 24.3772C99.5369 24.36 98.324 24.3986 97.121 24.3078C94.4464 24.1061 92.3013 22.841 90.5654 20.8511C88.7335 18.7507 88.1293 16.2828 88.359 13.5441C88.7205 9.2318 92.5648 5.73766 96.2257 5.05162C102.33 3.90782 106.881 8.18299 107.812 12.219C107.968 12.8972 108.079 13.602 108.085 14.2952C108.113 17.5466 108.097 20.7983 108.097 24.05C108.097 24.1459 108.097 24.2418 108.097 24.3727C107.105 24.3666 106.252 24.0672 105.517 23.4653C104.475 22.6113 103.949 21.5018 103.949 20.1503C103.95 18.2535 103.959 16.3567 103.947 14.4599C103.929 11.7435 101.823 9.28517 99.1787 8.84701C95.5469 8.24511 93.1331 10.8705 92.5621 13.2488C91.8346 16.2792 93.5792 19.4021 96.547 20.2573C97.0488 20.4018 97.588 20.4578 98.1124 20.4729C99.2102 20.5049 100.309 20.4826 101.408 20.4826H101.832V20.4832Z" fill="black"/>
<path d="M65.2792 24.3586C63.4518 24.4605 61.5811 22.9135 61.2831 21.081C61.2341 20.7791 61.2108 20.4697 61.2096 20.1639C61.203 18.2922 61.2163 16.4204 61.2039 14.5489C61.1861 11.8874 59.2495 9.44148 56.6897 8.89868C52.6126 8.03412 49.99 11.2569 49.7152 13.7815C49.649 14.3909 49.6484 15.0091 49.6448 15.6234C49.6357 17.1996 49.6448 18.7759 49.6409 20.3518C49.6354 22.4524 47.9392 24.2416 45.8313 24.3758C45.7584 24.3803 45.6853 24.3764 45.5698 24.3764C45.5629 24.2337 45.5511 24.1041 45.5508 23.9741C45.5496 20.7601 45.5305 17.5461 45.555 14.3324C45.5759 11.5768 46.7556 9.34257 48.7393 7.47564C53.2915 3.19203 61.3553 4.12354 64.4882 10.6911C65.0241 11.8144 65.2904 13.0143 65.2943 14.2592C65.3046 17.5347 65.2976 20.8102 65.2964 24.0857C65.2964 24.1695 65.2858 24.253 65.2786 24.3589L65.2792 24.3586Z" fill="black"/>
<path d="M2.60634 8.66503C2.33431 8.41926 1.16671 7.31014 1.14283 5.64886C1.1126 3.54581 2.92854 1.50427 5.12774 1.42798C7.27736 1.35349 8.61242 3.19781 8.71972 3.3513C7.73528 3.89893 6.54712 4.67061 5.32269 5.74385C4.15327 6.76884 3.26404 7.79413 2.60604 8.66473L2.60634 8.66503Z" fill="black"/>
<path d="M22.6703 8.66503C22.9423 8.41926 24.1099 7.31014 24.1338 5.64886C24.164 3.54581 22.3481 1.50427 20.1489 1.42798C17.9992 1.35349 16.6642 3.19781 16.5569 3.3513C17.5413 3.89893 18.7295 4.67061 19.9539 5.74385C21.1233 6.76884 22.0126 7.79413 22.6706 8.66473L22.6703 8.66503Z" fill="black"/>
<path d="M12.6539 16.8329C13.8775 16.8329 14.8694 15.8433 14.8694 14.6225C14.8694 13.4017 13.8775 12.4121 12.6539 12.4121C11.4303 12.4121 10.4384 13.4017 10.4384 14.6225C10.4384 15.8433 11.4303 16.8329 12.6539 16.8329Z" fill="#00AD4D"/>
<path d="M92.7652 30.0197C92.6839 29.4805 92.3251 29.0987 91.7511 29.0987C91.0623 29.0987 90.6319 29.681 90.6319 30.6689C90.6319 31.6568 91.0623 32.2488 91.756 32.2488C92.3157 32.2488 92.679 31.9146 92.7652 31.3562H94.0664C93.9947 32.5636 93.0904 33.3416 91.7415 33.3416C90.1963 33.3416 89.2158 32.3392 89.2158 30.6689C89.2158 28.9986 90.1963 28.0059 91.7321 28.0059C93.1194 28.0059 93.9996 28.8602 94.0619 30.02H92.7655L92.7652 30.0197Z" fill="black"/>
<path d="M94.7743 26.3438H96.1471V29.0258H96.1758C96.4485 28.3814 97.0082 28.0189 97.7878 28.0189C98.9263 28.0189 99.5768 28.7538 99.5768 29.9374V33.2304H98.1801V30.2332C98.1801 29.5746 97.8549 29.1739 97.2186 29.1739C96.5824 29.1739 96.171 29.6367 96.171 30.3098V33.2307H94.7743V26.3438Z" fill="black"/>
<path d="M100.271 31.7601C100.271 30.8295 100.988 30.29 102.266 30.2137L103.557 30.1374V29.7985C103.557 29.3211 103.222 29.0443 102.696 29.0443C102.17 29.0443 101.845 29.3021 101.777 29.6791H100.5C100.553 28.6863 101.399 28.0039 102.758 28.0039C104.117 28.0039 104.93 28.6815 104.93 29.7125V33.2299H103.581V32.447H103.552C103.265 32.991 102.629 33.311 101.988 33.311C101.012 33.311 100.27 32.681 100.27 31.7598L100.271 31.7601ZM103.557 31.3545V30.9824L102.476 31.049C101.955 31.0873 101.658 31.321 101.658 31.6838C101.658 32.0656 101.974 32.3041 102.447 32.3041C103.055 32.3041 103.557 31.9079 103.557 31.3542V31.3545Z" fill="black"/>
<path d="M107.599 26.9355V28.1143H108.546V29.1643H107.599V31.6127C107.599 32.0041 107.791 32.1902 108.202 32.1902C108.326 32.1902 108.455 32.1805 108.542 32.1663V33.1925C108.398 33.226 108.159 33.2498 107.877 33.2498C106.671 33.2498 106.202 32.8491 106.202 31.8515V29.1647H105.48V28.1146H106.202V26.9358H107.599V26.9355Z" fill="black"/>
</g>
<defs>
<clipPath id="clip0_1119_8796">
<rect width="110" height="33.3413" fill="white"/>
</clipPath>
</defs>
</svg>
