<?xml version="1.0" encoding="UTF-8"?>
<svg id="Layer_1" data-name="Layer 1" xmlns="http://www.w3.org/2000/svg" viewBox="0 0 3639.33 1105.64">
  <defs>
    <style>
      .cls-1 {
        font-family: SFProDisplay-Bold, 'SF Pro Display';
        font-size: 324.13px;
        font-weight: 700;
      }

      .cls-1, .cls-2 {
        fill: #fff;
      }

      .cls-3 {
        fill: #4fbb7a;
      }

      .cls-3, .cls-2 {
        stroke-width: 0px;
      }
    </style>
  </defs>
  <path class="cls-2" d="M2662.14,161.71c-40.19,0-79.33-.47-118.44.2-19.11.33-38.29,1.98-57.26,4.44-144.98,18.78-309.45,168.58-267.07,383.33,34.87,176.69,227.61,311.83,433.8,239.63,134.87-47.23,216.44-168.97,216.6-316.11.17-153.14.04-306.29.04-459.43V.07c-4.85,0-8.09-.18-11.31.03-68.18,4.37-125.02,64.69-125.17,133.29-.25,113.94-.02,227.87-.51,341.81-.07,17.04-1.12,34.47-4.84,51.02-28.54,127.03-159.79,189.83-273.59,132.54-73.53-37.01-112.28-116.89-101.56-203.13,11.07-89.05,88.43-161.03,177.93-164.23,39.15-1.4,78.39-.43,117.59-.53,4.36-.01,8.72,0,13.77,0v-129.17Z"/>
  <path class="cls-2" d="M297.74,808.45h12.73c36.75,0,73.51.18,110.26-.03,72.79-.42,138.61-21.47,197-65.66,137.13-103.76,157.46-272.69,97.13-395.51-60.15-122.46-191.68-203.89-348.46-181.98-133.33,18.64-279.86,149.12-276.06,325.21,3.33,154.29.69,308.71.69,463.07,0,5.2,0,10.41,0,16.55,4.82,0,8.4.18,11.95-.03,55.33-3.24,110.59-50.88,120-105.8,3.96-23.1,4.52-46.98,4.63-70.51.47-103.32.11-206.63.34-309.95.03-12.17.7-24.57,3.05-36.47,22.98-116.51,148.12-197.42,272.33-136.3,77.46,38.12,118.59,129.3,101.63,214.36-17.13,85.89-94.26,156.93-189.42,154.03-31.82-.97-63.7-.15-95.55-.15h-22.25v129.16Z"/>
  <path class="cls-2" d="M1246.68,679.28c-42.4,0-83.25.98-124.03-.42-19.71-.68-40.06-3.39-58.76-9.4-84.6-27.18-137.14-112.76-127.69-205.37,11.65-114.26,116.87-192.14,229.24-169.66,84.85,16.97,150.54,98.39,151.18,188.21.45,62.9-.27,125.8.2,188.69.41,54.17,25.82,94.1,72.35,120.68,19.59,11.19,41.03,16.6,64.3,16.11.2-3.65.45-6.05.45-8.45.02-107.83.53-215.66-.39-323.48-.2-23.02-3.64-46.44-8.85-68.93-31.8-137.34-181.45-276.56-381.81-239.95-141.45,25.85-291.11,165.5-260.35,369.97,22.92,152.36,160.69,270.6,314.83,271.11,39.21.13,78.42.06,117.63.02,3.89,0,7.77-.42,11.69-.65v-128.49Z"/>
  <path class="cls-2" d="M3369.08,679.28h-14.01c-36.35,0-72.72.74-109.04-.32-17.35-.51-35.2-2.36-51.79-7.15-98.19-28.36-155.91-131.92-131.84-232.41,18.89-78.87,98.75-165.93,218.91-145.97,87.48,14.53,157.16,96.05,157.75,186.13.42,62.9.1,125.8.08,188.7-.01,44.82,17.38,81.61,51.88,109.93,24.32,19.96,52.52,29.89,85.34,30.09,0-4.34,0-7.52,0-10.7,0-107.83.54-215.66-.39-323.48-.2-23-3.87-46.37-9.04-68.85-30.78-133.84-181.37-275.62-383.32-237.68-121.12,22.75-248.32,138.62-260.27,281.62-7.59,90.82,12.4,172.66,73,242.31,57.42,65.99,128.4,107.94,216.89,114.63,39.81,3.01,79.94,1.72,119.92,2.3,11.74.17,23.49.03,35.93.03v-129.16Z"/>
  <path class="cls-2" d="M2159.75,807.78c.24-3.51.59-6.29.59-9.06.03-108.62.26-217.24-.07-325.86-.13-41.27-8.94-81.07-26.67-118.32-103.65-217.79-370.45-248.68-521.05-106.63-65.64,61.91-104.66,136-105.35,227.38-.81,106.57-.18,213.15-.14,319.73,0,4.31.39,8.61.63,13.34,3.82,0,6.24.13,8.65-.02,69.74-4.45,125.86-63.77,126.04-133.44.14-52.27-.17-104.54.13-156.8.12-20.37.13-40.87,2.33-61.08,9.09-83.72,95.86-190.6,230.75-161.92,84.69,18,148.76,99.11,149.35,187.37.41,62.07-.03,124.14.19,186.2.04,10.15.8,20.4,2.43,30.41,9.85,60.77,71.74,112.08,132.21,108.69Z"/>
  <path class="cls-2" d="M2662.14,161.71v129.17c-5.05,0-9.41,0-13.77,0-39.2.1-78.44-.86-117.59.53-89.5,3.19-166.86,75.18-177.93,164.23-10.72,86.25,28.04,166.12,101.56,203.13,113.79,57.29,245.04-5.52,273.59-132.54,3.72-16.55,4.76-33.99,4.84-51.02.49-113.93.27-227.87.51-341.81.15-68.6,56.99-128.92,125.17-133.29,3.22-.21,6.46-.03,11.31-.03v13.69c0,153.14.12,306.29-.04,459.43-.16,147.14-81.73,268.88-216.6,316.11-206.19,72.2-398.93-62.94-433.8-239.63-42.38-214.76,122.09-364.55,267.07-383.33,18.97-2.46,38.15-4.11,57.26-4.44,39.12-.68,78.25-.2,118.44-.2Z"/>
  <path class="cls-2" d="M297.74,808.45v-129.16h22.25c31.85,0,63.73-.82,95.55.15,95.15,2.9,172.28-68.14,189.42-154.03,16.97-85.06-24.16-176.24-101.63-214.36-124.21-61.12-249.35,19.79-272.33,136.3-2.35,11.9-3.02,24.3-3.05,36.47-.23,103.32.13,206.64-.34,309.95-.11,23.53-.67,47.41-4.63,70.51-9.41,54.93-64.67,102.56-120,105.8-3.55.21-7.13.03-11.95.03,0-6.14,0-11.34,0-16.55,0-154.36,2.64-308.78-.69-463.07-3.8-176.09,142.73-306.57,276.06-325.21,156.79-21.92,288.31,59.51,348.46,181.98,60.32,122.82,40,291.75-97.13,395.51-58.4,44.18-124.21,65.24-197,65.66-36.75.21-73.51.04-110.26.03h-12.73Z"/>
  <path class="cls-2" d="M1246.68,679.28v128.49c-3.92.23-7.81.64-11.69.65-39.21.04-78.42.11-117.63-.02-154.14-.51-291.91-118.75-314.83-271.11-30.76-204.47,118.89-344.13,260.35-369.97,200.36-36.61,350.01,102.61,381.81,239.95,5.21,22.48,8.65,45.91,8.85,68.93.91,107.82.41,215.65.39,323.48,0,2.4-.25,4.8-.45,8.45-23.27.48-44.71-4.92-64.3-16.11-46.52-26.57-71.94-66.51-72.35-120.68-.47-62.89.25-125.8-.2-188.69-.64-89.82-66.33-171.24-151.18-188.21-112.37-22.47-217.59,55.4-229.24,169.66-9.44,92.61,43.09,178.19,127.69,205.37,18.7,6.01,39.05,8.72,58.76,9.4,40.78,1.41,81.63.42,124.03.42Z"/>
  <path class="cls-2" d="M3369.08,679.28v129.16c-12.44,0-24.19.14-35.93-.03-39.99-.57-80.12.71-119.92-2.3-88.49-6.69-159.46-48.64-216.89-114.63-60.61-69.65-80.6-151.49-73-242.31,11.96-143,139.15-258.87,260.27-281.62,201.96-37.93,352.54,103.84,383.32,237.68,5.17,22.49,8.84,45.86,9.04,68.85.93,107.82.4,215.65.39,323.48,0,3.18,0,6.36,0,10.7-32.81-.2-61.02-10.13-85.34-30.09-34.5-28.32-51.9-65.11-51.88-109.93.02-62.9.34-125.8-.08-188.7-.6-90.08-70.27-171.6-157.75-186.13-120.16-19.96-200.02,67.1-218.91,145.97-24.07,100.49,33.65,204.05,131.84,232.41,16.6,4.79,34.44,6.65,51.79,7.15,36.32,1.06,72.69.32,109.04.32h14.01Z"/>
  <path class="cls-2" d="M2159.75,807.78c-60.46,3.38-122.35-47.92-132.21-108.69-1.62-10.01-2.39-20.27-2.43-30.41-.22-62.07.22-124.14-.19-186.2-.59-88.26-64.66-169.37-149.35-187.37-134.89-28.67-221.66,78.2-230.75,161.92-2.19,20.21-2.21,40.71-2.33,61.08-.3,52.27,0,104.54-.13,156.8-.18,69.66-56.3,128.99-126.04,133.44-2.41.15-4.83.02-8.65.02-.23-4.73-.62-9.03-.63-13.34-.04-106.58-.67-213.16.14-319.73.69-91.38,39.72-165.47,105.35-227.38,150.61-142.05,417.4-111.16,521.05,106.63,17.73,37.25,26.54,77.04,26.67,118.32.34,108.62.11,217.24.07,325.86,0,2.78-.35,5.55-.59,9.06Z"/>
  <path class="cls-2" d="M86.23,287.34c-9-8.15-47.63-44.93-48.42-100.02-1-69.74,59.08-137.44,131.84-139.97,71.12-2.47,115.29,58.69,118.84,63.78-32.57,18.16-71.88,43.75-112.39,79.34-38.69,33.99-68.11,67.99-89.88,96.86Z"/>
  <path class="cls-2" d="M750.04,287.34c9-8.15,47.63-44.93,48.42-100.02,1-69.74-59.08-137.44-131.84-139.97-71.12-2.47-115.29,58.69-118.84,63.78,32.57,18.16,71.88,43.75,112.39,79.34,38.69,33.99,68.11,67.99,89.88,96.86Z"/>
  <circle class="cls-3" cx="418.65" cy="484.93" r="73.3"/>
  <text class="cls-1" transform="translate(2942.83 1102)"><tspan x="0" y="0">chat</tspan></text>
</svg>